<svg width="20" height="20" viewBox="0 0 20 20" fill="none" xmlns="http://www.w3.org/2000/svg">
<path d="M15 6.66671H14.1666V5.00004C14.1666 2.70004 12.3 0.833374 9.99998 0.833374C7.69998 0.833374 5.83331 2.70004 5.83331 5.00004V6.66671H4.99998C4.08331 6.66671 3.33331 7.41671 3.33331 8.33337V16.6667C3.33331 17.5834 4.08331 18.3334 4.99998 18.3334H15C15.9166 18.3334 16.6666 17.5834 16.6666 16.6667V8.33337C16.6666 7.41671 15.9166 6.66671 15 6.66671ZM9.99998 14.1667C9.08331 14.1667 8.33331 13.4167 8.33331 12.5C8.33331 11.5834 9.08331 10.8334 9.99998 10.8334C10.9166 10.8334 11.6666 11.5834 11.6666 12.5C11.6666 13.4167 10.9166 14.1667 9.99998 14.1667ZM12.5833 6.66671H7.41665V5.00004C7.41665 3.57504 8.57498 2.41671 9.99998 2.41671C11.425 2.41671 12.5833 3.57504 12.5833 5.00004V6.66671Z" fill="#A5B0C1"/>
</svg>
